<svg width="600" height="600" viewBox="0 0 500 500" fill="none" xmlns="http://www.w3.org/2000/svg">
<path d="M449.91 395.31H395.35V395.56H449.91V395.31Z" fill="#EBEBEB"/>
<path d="M381.06 373.53H426.71V248.06H381.06V373.53Z" fill="#F0F0F0"/>
<path d="M381.06 302.47H388.96V256.54H381.06V302.47Z" fill="#E6E6E6"/>
<path d="M381.06 356.77H388.96V310.84H381.06V356.77Z" fill="#E6E6E6"/>
<path d="M433.09 240.33H381.06V248.05H433.09V240.33Z" fill="#E6E6E6"/>
<path d="M328.15 216.73H435.58V81.69H328.15V216.73Z" fill="#F0F0F0"/>
<path d="M315.07 92.33V206.09H420.82V92.33H315.07Z" fill="white"/>
<path d="M379.65 161.52L399.86 152.15V146.26L379.65 136.87V143.93L391.93 149.22L379.65 154.51V161.52Z" fill="#E6E6E6"/>
<path d="M366.47 134.15H362.78L369.32 164.26H373L366.47 134.15Z" fill="#E6E6E6"/>
<path d="M356.23 154.51L344 149.22L356.28 143.93V136.87L336 146.26V152.15L356.21 161.52L356.23 154.51Z" fill="#E6E6E6"/>
<path d="M500 382.4H0V382.65H500V382.4Z" fill="#EBEBEB"/>
<path d="M200.44 391.92H174.44V392.17H200.44V391.92Z" fill="#EBEBEB"/>
<path d="M106.56 389.21H52.46V389.46H106.56V389.21Z" fill="#EBEBEB"/>
<path d="M173.44 401.21H147.12V401.46H173.44V401.21Z" fill="#EBEBEB"/>
<path d="M297.06 399.53H258.23V399.78H297.06V399.53Z" fill="#EBEBEB"/>
<path d="M316.65 399.53H305.96V399.78H316.65V399.53Z" fill="#EBEBEB"/>
<path d="M181.73 382.39L417.94 382.39V373.52H181.73V382.39Z" fill="#F0F0F0"/>
<path d="M381.06 248.05H172.97V373.52H381.06V248.05Z" fill="#F5F5F5"/>
<path d="M381.86 256.55H172.97V302.48H381.86V256.55Z" fill="#F0F0F0"/>
<path d="M381.86 310.85H172.97V356.78H381.86V310.85Z" fill="#F0F0F0"/>
<path d="M166.89 248.05L381.06 248.05V240.33L166.89 240.33V248.05Z" fill="#F0F0F0"/>
<path d="M304.43 216.73L431.46 216.73V81.69L304.43 81.69V216.73Z" fill="#F5F5F5"/>
<path d="M117.22 382.4H124.26L124.26 153.22H117.22L117.22 382.4Z" fill="#F0F0F0"/>
<path d="M115.75 380.8L115.56 379.8C116.284 379.567 116.953 379.189 117.526 378.689C118.098 378.189 118.563 377.576 118.89 376.89C120.72 373.65 121.83 366.74 116.74 352.26C108.9 329.94 113.58 311.94 122.91 276.06C124.53 269.81 126.37 262.73 128.28 255.06C135.45 226.39 128.82 208.61 123.49 194.32C119.36 183.23 116.09 174.47 120.27 164.32L121.2 164.7C117.2 174.48 120.37 183.08 124.43 193.97C129.81 208.38 136.5 226.33 129.25 255.29C127.34 262.95 125.5 270.03 123.88 276.29C114.6 312 109.94 329.92 117.69 352C122.92 366.89 121.69 374.09 119.69 377.5C119.293 378.29 118.739 378.99 118.061 379.557C117.384 380.125 116.597 380.548 115.75 380.8V380.8Z" fill="#F0F0F0"/>
<path d="M107.99 382.4H133.48L126.39 378.22H115.08L107.99 382.4Z" fill="#F0F0F0"/>
<path d="M70.3101 182.41H171.16L160.06 97.67H81.4101L70.3101 182.41Z" fill="#F5F5F5"/>
<path d="M219.88 196.38H273.72L266.63 240.33H226.97L219.88 196.38Z" fill="#F0F0F0"/>
<path d="M241.51 210.68C256.19 205.37 267.43 197.39 254.85 181.24C242.27 165.09 222.78 165.17 209.64 172.32C192.9 181.42 196.26 207.77 196.26 207.77C196.26 207.77 226.83 216 241.51 210.68Z" fill="#E0E0E0"/>
<path d="M255.78 196C244.55 188.35 236.59 179.5 249.62 170.16C262.65 160.82 278.72 165.61 288.38 174.28C300.69 185.34 293.58 204.75 293.58 204.75C293.58 204.75 267 203.61 255.78 196Z" fill="#E6E6E6"/>
<path d="M236 176.59C249.14 175.8 260.16 172.37 253.94 158.14C247.72 143.91 231.94 139.92 219.63 142.36C203.9 145.47 200.19 165.15 200.19 165.15C200.19 165.15 222.87 177.39 236 176.59Z" fill="#F0F0F0"/>
<path d="M252.5 168.2C241.57 164.68 233 159.41 241.33 148.72C249.66 138.03 263.83 138.09 273.73 142.81C286.35 148.81 285.23 166.27 285.23 166.27C285.23 166.27 263.43 171.71 252.5 168.2Z" fill="#EBEBEB"/>
<path d="M232 150C242.91 153.6 252.94 154.38 252.49 140.84C252.04 127.3 240.58 119 229.8 116.94C216.05 114.38 206.69 129.13 206.69 129.13C206.69 129.13 221.11 146.37 232 150Z" fill="#F5F5F5"/>
<path d="M259.69 144.15C251.88 144.69 245.13 143.51 247.69 134.64C250.25 125.77 259.25 122.24 266.69 122.73C276.19 123.36 279.88 134.73 279.88 134.73C279.88 134.73 267.49 143.62 259.69 144.15Z" fill="#FAFAFA"/>
<path d="M250 427.56C357.082 427.56 443.89 422.492 443.89 416.24C443.89 409.988 357.082 404.92 250 404.92C142.917 404.92 56.11 409.988 56.11 416.24C56.11 422.492 142.917 427.56 250 427.56Z" fill="#F5F5F5"/>
<path d="M419.26 251.09H79.51V263.28H419.26V251.09Z" fill="#16594D"/>
<path opacity="0.3" d="M170.44 251.09H79.51V263.28H170.44V251.09Z" fill="white"/>
<path d="M171.89 263.28H163.98L168.12 416.06H171.89H175.66L179.81 263.28H171.89Z" fill="#16594D"/>
<path opacity="0.3" d="M168.12 416.06H171.89V266.56L164.11 267.98L168.12 416.06Z" fill="white"/>
<path d="M96.92 263.28H89.01L93.15 416.06H96.92H100.69L104.83 263.28H96.92Z" fill="#16594D"/>
<path opacity="0.3" d="M93.15 416.06H96.92V266.56L89.13 267.98L93.15 416.06Z" fill="white"/>
<path d="M401.85 263.28H393.94L398.08 416.06H401.85H405.62L409.77 263.28H401.85Z" fill="#16594D"/>
<path opacity="0.3" d="M398.08 416.06H401.85V266.56L394.07 267.98L398.08 416.06Z" fill="white"/>
<path d="M326.88 263.28H318.97L323.11 416.06H326.88H330.65L334.79 263.28H326.88Z" fill="#16594D"/>
<path opacity="0.3" d="M323.11 416.06H326.88V266.56L319.1 267.98L323.11 416.06Z" fill="white"/>
<path d="M240.78 185.83H160C159.344 185.804 158.692 185.934 158.096 186.208C157.5 186.482 156.978 186.894 156.571 187.408C156.164 187.923 155.885 188.527 155.756 189.17C155.628 189.814 155.653 190.478 155.83 191.11L166.59 242.46C166.936 243.912 167.746 245.212 168.898 246.163C170.049 247.114 171.478 247.664 172.97 247.73H253.81C254.465 247.755 255.116 247.626 255.711 247.352C256.306 247.078 256.828 246.668 257.234 246.154C257.64 245.641 257.92 245.039 258.049 244.397C258.179 243.755 258.155 243.091 257.98 242.46L247.21 191.11C246.863 189.648 246.047 188.34 244.885 187.386C243.724 186.432 242.282 185.886 240.78 185.83V185.83Z" fill="#263238"/>
<path d="M173.67 244.8C172.662 244.732 171.702 244.347 170.926 243.701C170.15 243.054 169.599 242.179 169.35 241.2L158.59 189.85C158.498 189.51 158.483 189.154 158.547 188.808C158.611 188.462 158.752 188.134 158.96 187.85C159.175 187.607 159.442 187.415 159.742 187.288C160.041 187.162 160.365 187.104 160.69 187.12H241.53C242.538 187.188 243.498 187.573 244.274 188.219C245.05 188.866 245.601 189.741 245.85 190.72L256.61 242.07C256.702 242.41 256.717 242.766 256.653 243.112C256.589 243.458 256.448 243.786 256.24 244.07C256.026 244.315 255.759 244.508 255.459 244.635C255.16 244.761 254.835 244.818 254.51 244.8H173.67Z" fill="white"/>
<path opacity="0.4" d="M234.66 240.69L224.46 192C224.403 191.712 224.41 191.414 224.48 191.129C224.551 190.844 224.684 190.578 224.869 190.349C225.054 190.121 225.287 189.937 225.552 189.809C225.817 189.681 226.106 189.613 226.4 189.61H239.52C239.975 189.614 240.415 189.772 240.768 190.059C241.12 190.346 241.365 190.745 241.46 191.19L251.66 239.84C251.717 240.128 251.71 240.426 251.64 240.711C251.569 240.996 251.437 241.262 251.251 241.491C251.066 241.719 250.833 241.903 250.568 242.031C250.304 242.159 250.014 242.227 249.72 242.23H236.6C236.151 242.229 235.715 242.076 235.363 241.796C235.011 241.517 234.763 241.127 234.66 240.69V240.69Z" fill="#16594D"/>
<path d="M165.32 193.87L164.88 191.76H181.08L181.52 193.87H165.32Z" fill="#16594D"/>
<path d="M172.8 199.11L172.36 197H200.75L201.2 199.11H172.8Z" fill="#EBEBEB"/>
<path d="M174.3 204.34L173.85 202.23H205.68L206.12 204.34H174.3Z" fill="#EBEBEB"/>
<path d="M175.79 209.58L175.35 207.47H200.97L201.42 209.58H175.79Z" fill="#EBEBEB"/>
<path d="M170.25 218.07L169.8 215.96H180.05L180.49 218.07H170.25Z" fill="#16594D"/>
<path d="M177.72 223.3L177.28 221.19H189.76L190.21 223.3H177.72Z" fill="#EBEBEB"/>
<path d="M193.2 223.3L192.75 221.19H205.24L205.68 223.3H193.2Z" fill="#EBEBEB"/>
<path d="M179.22 228.54L178.78 226.43H220.98L221.42 228.54H179.22Z" fill="#EBEBEB"/>
<path d="M180.71 233.77L180.27 231.66H212.45L212.89 233.77H180.71Z" fill="#EBEBEB"/>
<path d="M278.52 247.42H172.16C169.26 247.42 167.38 249.07 167.99 251.09H284.9C284.3 249.07 281.42 247.42 278.52 247.42Z" fill="#263238"/>
<path opacity="0.1" d="M137.21 172.85L127 124.19C126.944 123.902 126.952 123.606 127.024 123.322C127.095 123.038 127.228 122.773 127.413 122.546C127.598 122.319 127.831 122.136 128.095 122.008C128.359 121.881 128.647 121.813 128.94 121.81H211.54C211.993 121.813 212.432 121.97 212.785 122.255C213.137 122.541 213.382 122.937 213.48 123.38L223.69 172C223.747 172.288 223.74 172.586 223.67 172.871C223.599 173.156 223.466 173.422 223.281 173.651C223.096 173.879 222.863 174.063 222.598 174.191C222.333 174.319 222.044 174.387 221.75 174.39H139.15C138.701 174.389 138.265 174.236 137.913 173.956C137.561 173.677 137.313 173.287 137.21 172.85V172.85Z" fill="#16594D"/>
<path d="M166.57 123.41H149.23L148.84 121.54H166.18L166.57 123.41Z" fill="#16594D"/>
<path opacity="0.4" d="M163.75 126.39H156.79L156.4 124.52H163.36L163.75 126.39Z" fill="#16594D"/>
<path opacity="0.4" d="M175.33 126.39H164.61L164.22 124.52H174.94L175.33 126.39Z" fill="#16594D"/>
<path opacity="0.4" d="M180 129.36H157.41L157.02 127.49H179.62L180 129.36Z" fill="#16594D"/>
<path opacity="0.4" d="M177.13 132.34H158.03L157.64 130.47H176.74L177.13 132.34Z" fill="#16594D"/>
<path opacity="0.4" d="M189.8 163.95H177.64L178.03 165.81H190.19L189.8 163.95Z" fill="#16594D"/>
<path d="M174.64 159.87H156.83L156.44 158H174.25L174.64 159.87Z" fill="#16594D"/>
<path opacity="0.4" d="M181.8 166.92H165.24L165.63 168.79H182.19L181.8 166.92Z" fill="#16594D"/>
<path opacity="0.4" d="M176.78 163.95H164.62L165.01 165.81H177.17L176.78 163.95Z" fill="#16594D"/>
<path opacity="0.4" d="M188.32 160.97H164L164.39 162.84H188.71L188.32 160.97Z" fill="#16594D"/>
<path d="M165.96 109.53H146.34L145.95 107.67H165.57L165.96 109.53Z" fill="#16594D"/>
<path opacity="0.4" d="M175.65 116.59H154.01L154.4 118.46H176.03L175.65 116.59Z" fill="#16594D"/>
<path opacity="0.4" d="M171.32 113.62H153.39L153.78 115.48H171.71L171.32 113.62Z" fill="#16594D"/>
<path opacity="0.4" d="M172.51 110.64H152.77L153.16 112.51H172.9L172.51 110.64Z" fill="#16594D"/>
<path d="M165.74 137.18H152.1L151.71 135.31H165.35L165.74 137.18Z" fill="#16594D"/>
<path opacity="0.4" d="M187.16 144.23H160.51L160.9 146.1H187.54L187.16 144.23Z" fill="#16594D"/>
<path opacity="0.4" d="M170.93 141.26H159.89L160.28 143.13H171.32L170.93 141.26Z" fill="#16594D"/>
<path opacity="0.4" d="M182.91 141.26H171.87L172.26 143.13H183.3L182.91 141.26Z" fill="#16594D"/>
<path opacity="0.4" d="M183.59 138.28H159.27L159.66 140.15H183.97L183.59 138.28Z" fill="#16594D"/>
<path opacity="0.4" d="M183.54 153.16H162.37L162.76 155.02H183.93L183.54 153.16Z" fill="#16594D"/>
<path opacity="0.4" d="M167.91 150.18H161.75L162.14 152.05H168.29L167.91 150.18Z" fill="#16594D"/>
<path opacity="0.4" d="M177.54 150.18H168.75L169.14 152.05H177.93L177.54 150.18Z" fill="#16594D"/>
<path opacity="0.4" d="M185.45 147.21H161.13L161.52 149.07H185.84L185.45 147.21Z" fill="#16594D"/>
<path opacity="0.4" d="M204.6 146.71H195.89L195.5 144.84H204.22L204.6 146.71Z" fill="#16594D"/>
<path opacity="0.4" d="M219.1 146.71H205.68L205.29 144.84H218.71L219.1 146.71Z" fill="#16594D"/>
<path opacity="0.4" d="M224.8 149.69H196.51L196.12 147.82H224.41L224.8 149.69Z" fill="#16594D"/>
<path opacity="0.4" d="M221.04 152.66H197.13L196.74 150.79H220.65L221.04 152.66Z" fill="#16594D"/>
<path opacity="0.4" d="M231.75 134.88H204.66L205.05 136.74H232.14L231.75 134.88Z" fill="#16594D"/>
<path opacity="0.4" d="M226.49 131.9H204.04L204.43 133.77H226.87L226.49 131.9Z" fill="#16594D"/>
<path d="M222.43 128.93H197.71L198.1 130.79H222.82L222.43 128.93Z" fill="#16594D"/>
<path opacity="0.4" d="M232.97 164.56H199.61L200 166.43H233.36L232.97 164.56Z" fill="#16594D"/>
<path opacity="0.4" d="M212.81 161.59H198.99L199.38 163.45H213.2L212.81 161.59Z" fill="#16594D"/>
<path opacity="0.4" d="M227.81 161.59H213.99L214.38 163.45H228.2L227.81 161.59Z" fill="#16594D"/>
<path opacity="0.4" d="M228.81 158.61H198.37L198.76 160.48H229.2L228.81 158.61Z" fill="#16594D"/>
<path opacity="0.4" d="M227.97 173.48H201.47L201.86 175.35H228.36L227.97 173.48Z" fill="#16594D"/>
<path opacity="0.4" d="M208.56 170.51H200.85L201.24 172.38H208.95L208.56 170.51Z" fill="#16594D"/>
<path opacity="0.4" d="M220.62 170.51H209.62L210.01 172.38H221.01L220.62 170.51Z" fill="#16594D"/>
<path opacity="0.4" d="M230.68 167.53H200.23L200.62 169.4H231.06L230.68 167.53Z" fill="#16594D"/>
<path opacity="0.4" d="M149.6 175.79H128.86L129.25 177.66H149.99L149.6 175.79Z" fill="#16594D"/>
<path opacity="0.4" d="M143.47 172.82H128.24L128.63 174.68H143.85L143.47 172.82Z" fill="#16594D"/>
<path opacity="0.4" d="M159.76 172.82H144.54L144.93 174.68H160.16L159.76 172.82Z" fill="#16594D"/>
<path opacity="0.4" d="M158.07 169.84H127.62L128.01 171.71H158.45L158.07 169.84Z" fill="#16594D"/>
<path d="M390.95 231.66H378.11L379.61 251.09H389.45L390.95 231.66Z" fill="#16594D"/>
<path opacity="0.4" d="M390.95 231.66H378.11L379.61 251.09H389.45L390.95 231.66Z" fill="white"/>
<path d="M111.13 218.17H129.59L123.29 251.09H104.83L111.13 218.17Z" fill="#263238"/>
<path d="M134.64 209.35H108.57L115.87 251.09H141.94L134.64 209.35Z" fill="#16594D"/>
<path d="M107.03 209.35H108.57L115.87 251.09H114.33L107.03 209.35Z" fill="#16594D"/>
<path opacity="0.3" d="M107.03 209.35H108.57L115.87 251.09H114.33L107.03 209.35Z" fill="black"/>
<path d="M119.62 246.62L113.88 213.81H130.9L136.63 246.62H119.62Z" fill="white"/>
<path opacity="0.6" d="M135.82 246.62L130.09 213.81H130.9L136.63 246.62H135.82Z" fill="#16594D"/>
<path d="M263.77 156C264.14 156.8 264.02 157.65 263.49 157.89C262.96 158.13 262.24 157.68 261.87 156.89C261.5 156.1 261.63 155.24 262.15 155C262.67 154.76 263.4 155.16 263.77 156Z" fill="#263238"/>
<path d="M264.09 157.58C264.09 157.58 264.41 163.04 263.43 166.2C265.43 166.87 267.59 165.2 267.59 165.2L264.09 157.58Z" fill="#FF5652"/>
<path d="M263.87 149.39C263.785 149.46 263.68 149.502 263.57 149.51C262.919 149.527 262.282 149.698 261.71 150.01C261.138 150.321 260.648 150.763 260.28 151.3C260.247 151.362 260.202 151.416 260.148 151.46C260.094 151.503 260.031 151.536 259.964 151.555C259.897 151.574 259.827 151.58 259.758 151.571C259.688 151.563 259.622 151.54 259.561 151.505C259.501 151.47 259.448 151.424 259.406 151.368C259.364 151.312 259.334 151.249 259.317 151.181C259.3 151.113 259.297 151.043 259.308 150.974C259.319 150.905 259.343 150.839 259.38 150.78C259.833 150.092 260.445 149.523 261.163 149.121C261.882 148.719 262.687 148.496 263.51 148.47C263.619 148.464 263.728 148.493 263.82 148.552C263.912 148.611 263.983 148.698 264.023 148.8C264.063 148.902 264.07 149.014 264.042 149.12C264.015 149.226 263.954 149.32 263.87 149.39V149.39Z" fill="#263238"/>
<path d="M293.22 154.76C296.31 165.46 299.76 173.76 303.97 178.5C303.97 178.5 304.05 186.91 289.72 190.91C273.96 195.31 280 185.19 280 185.19C288 180.74 287.24 174.02 281.22 171.46L293.22 154.76Z" fill="#EEB1A9"/>
<path d="M307.31 176.45C307.03 172.54 306.66 168.08 304.25 167.96C301.59 167.84 286.19 174.72 282.9 179.57C279.61 184.42 286.04 189.17 286.04 189.17L307.31 176.45Z" fill="#263238"/>
<path d="M275.79 237L262.49 236.56L262.73 247.7C262.73 247.7 274.33 246.5 274.84 243.45L275.79 237Z" fill="#EEB1A9"/>
<path d="M255.46 242.03L254.06 247.73L262.73 247.71L262.49 236.57L255.46 242.03Z" fill="#EEB1A9"/>
<path d="M329.17 190.71L328.89 193.57C328.8 194.49 328.68 195.39 328.56 196.3C328.33 198.11 328.04 199.92 327.73 201.72C327.13 205.33 326.35 208.92 325.45 212.53C324.535 216.209 323.427 219.838 322.13 223.4C321.44 225.23 320.72 227.06 319.86 228.92C318.993 230.871 317.991 232.759 316.86 234.57C316.59 235.04 316.25 235.57 315.92 236.01C315.59 236.45 315.27 237.01 314.92 237.47C314.57 237.93 314.2 238.47 313.74 238.94L313.09 239.68C312.857 239.953 312.61 240.213 312.35 240.46C310.346 242.423 307.996 243.999 305.42 245.11C301.468 246.805 297.273 247.868 292.99 248.26C291.04 248.49 289.11 248.58 287.22 248.63C285.33 248.68 283.44 248.63 281.58 248.53C279.72 248.43 277.88 248.27 276.05 248.05C274.22 247.83 272.44 247.54 270.5 247.15L270.82 236.7C277.205 235.583 283.517 234.081 289.72 232.2C291.1 231.751 292.455 231.231 293.78 230.64C294.908 230.164 295.987 229.578 297 228.89C297.589 228.535 298.089 228.049 298.46 227.47L298.75 227.01C298.884 226.814 299.008 226.61 299.12 226.4C299.263 226.17 299.393 225.933 299.51 225.69C299.64 225.43 299.78 225.19 299.91 224.9C301.085 222.335 302.051 219.68 302.8 216.96C303.62 214.02 304.39 210.96 305.01 207.79C305.63 204.62 306.23 201.42 306.78 198.19L307.54 193.33L308.23 188.6L329.17 190.71Z" fill="#16594D"/>
<path opacity="0.2" d="M329.17 190.71L328.89 193.57C328.8 194.49 328.68 195.39 328.56 196.3C328.33 198.11 328.04 199.92 327.73 201.72C327.13 205.33 326.35 208.92 325.45 212.53C324.535 216.209 323.427 219.838 322.13 223.4C321.44 225.23 320.72 227.06 319.86 228.92C318.993 230.871 317.991 232.759 316.86 234.57C316.59 235.04 316.25 235.57 315.92 236.01C315.59 236.45 315.27 237.01 314.92 237.47C314.57 237.93 314.2 238.47 313.74 238.94L313.09 239.68C312.857 239.953 312.61 240.213 312.35 240.46C310.346 242.423 307.996 243.999 305.42 245.11C301.468 246.805 297.273 247.868 292.99 248.26C291.04 248.49 289.11 248.58 287.22 248.63C285.33 248.68 283.44 248.63 281.58 248.53C279.72 248.43 277.88 248.27 276.05 248.05C274.22 247.83 272.44 247.54 270.5 247.15L270.82 236.7C277.205 235.583 283.517 234.081 289.72 232.2C291.1 231.751 292.455 231.231 293.78 230.64C294.908 230.164 295.987 229.578 297 228.89C297.589 228.535 298.089 228.049 298.46 227.47L298.75 227.01C298.884 226.814 299.008 226.61 299.12 226.4C299.263 226.17 299.393 225.933 299.51 225.69C299.64 225.43 299.78 225.19 299.91 224.9C301.085 222.335 302.051 219.68 302.8 216.96C303.62 214.02 304.39 210.96 305.01 207.79C305.63 204.62 306.23 201.42 306.78 198.19L307.54 193.33L308.23 188.6L329.17 190.71Z" fill="black"/>
<path d="M270.12 204C275.079 225.378 277.869 247.202 278.45 269.14H337C337.32 261.91 336.1 221.14 330.21 191.69C329.687 189.023 328.637 186.486 327.12 184.231C325.603 181.975 323.651 180.045 321.378 178.555C319.104 177.064 316.556 176.043 313.883 175.551C311.21 175.059 308.465 175.106 305.81 175.69L305.53 175.76C298.22 177.42 287.73 180.1 281.53 182.45L281.28 182.55C277.134 184.162 273.715 187.227 271.662 191.174C269.608 195.121 269.06 199.679 270.12 204V204Z" fill="#16594D"/>
<path opacity="0.2" d="M273.93 222.7C274.39 225.51 274.86 228.49 275.29 231.61C280.08 226.61 281.6 211.29 281.6 211.29L273.93 222.7Z" fill="black"/>
<path d="M225.29 237.73L212 236.49L211.56 247.62C213.756 248.226 216.077 248.22 218.27 247.601C220.463 246.982 222.444 245.775 224 244.11L225.29 237.73Z" fill="#EEB1A9"/>
<path d="M205.68 239.77L201.42 247.42L211.6 247.62L212.04 236.49L205.68 239.77Z" fill="#EEB1A9"/>
<path d="M292.09 198.87C291.17 200.62 290.35 202.17 289.43 203.77C288.51 205.37 287.63 206.93 286.68 208.48C284.8 211.6 282.85 214.66 280.79 217.69C276.654 223.895 272.072 229.791 267.08 235.33C264.407 238.312 261.501 241.078 258.39 243.6C258 243.93 257.54 244.25 257.11 244.6C256.68 244.95 256.3 245.23 255.66 245.6C255.02 245.97 254.48 246.34 253.9 246.66C253.32 246.98 252.72 247.27 252.13 247.53C249.924 248.488 247.616 249.189 245.25 249.62C241.112 250.318 236.895 250.412 232.73 249.9C230.779 249.676 228.843 249.343 226.93 248.9C225.977 248.68 225.037 248.43 224.11 248.15C223.11 247.87 222.3 247.56 221.23 247.15L222.88 236.83C229.16 235.98 235.95 234.89 240.63 232.77C241.669 232.343 242.647 231.782 243.54 231.1C243.899 230.853 244.234 230.571 244.54 230.26C244.61 230.17 244.92 229.9 245.15 229.68C245.38 229.46 245.65 229.25 245.9 228.99C248.04 226.869 250.044 224.614 251.9 222.24C255.926 217.046 259.687 211.653 263.17 206.08C264.97 203.25 266.72 200.37 268.47 197.48L271.05 193.14L273.54 188.87L292.09 198.87Z" fill="#16594D"/>
<path d="M276.02 407.6H265.08L259.57 382.25H270.52L276.02 407.6Z" fill="#EEB1A9"/>
<path d="M264.47 405.26H276.77C276.984 405.268 277.19 405.344 277.357 405.477C277.524 405.61 277.645 405.793 277.7 406L279.86 415.74C279.912 415.977 279.909 416.222 279.852 416.457C279.795 416.692 279.685 416.912 279.531 417.098C279.377 417.285 279.183 417.435 278.962 417.535C278.742 417.636 278.502 417.686 278.26 417.68C273.97 417.61 271.88 417.36 266.47 417.36C263.14 417.36 258.87 417.7 254.28 417.7C249.69 417.7 249.08 413.16 250.96 412.75C259.4 410.9 259.96 408.36 262.69 405.93C263.18 405.493 263.814 405.254 264.47 405.26Z" fill="#263238"/>
<g opacity="0.2">
<path opacity="0.2" d="M270.53 382.26H259.57L262.63 396.3L273.37 395.33L270.53 382.26Z" fill="black"/>
</g>
<path d="M289.71 141.9C293.71 152.02 296.49 157.75 293.85 165.1C289.85 176.15 275.66 177.27 268.76 168.53C262.56 160.66 257.14 145.43 264.97 137.06C266.685 135.204 268.846 133.818 271.247 133.034C273.649 132.249 276.211 132.092 278.691 132.577C281.17 133.062 283.484 134.173 285.413 135.805C287.342 137.437 288.821 139.535 289.71 141.9V141.9Z" fill="#EEB1A9"/>
<path d="M270.49 157.06C268.85 159.26 267.59 160.93 267.59 160.93C267.59 160.93 264.22 152.56 265.51 148.72C263.87 145.47 260.56 150.26 259.31 143.93C258.06 137.6 263.47 130.8 265.51 129.39C265.72 130.128 265.815 130.893 265.79 131.66C271.302 127.187 278.308 124.974 285.39 125.47C284.798 126.35 284.421 127.357 284.29 128.41C284.29 128.41 296.16 130.41 298.86 137.13C297.905 136.674 296.897 136.338 295.86 136.13C298.036 139.25 298.898 143.1 298.26 146.85C297.399 152.319 296.951 157.844 296.92 163.38C297.03 166.22 289.24 171.65 284.49 165.85C279.74 160.05 270.49 157.06 270.49 157.06Z" fill="#263238"/>
<path d="M275.44 154.88C276.06 157.237 275.884 159.733 274.94 161.98C273.67 164.98 271.06 164.26 269.77 161.64C268.6 159.29 267.85 154.93 269.92 152.84C271.99 150.75 274.66 152.05 275.44 154.88Z" fill="#EEB1A9"/>
<path d="M296 269.1C296 269.1 245.16 287.54 243.67 311.93C240.91 356.86 259.28 392.43 259.28 392.43L276.12 390.63C276.12 390.63 273.12 376.17 270.89 335.47C268.08 284.32 354.89 336.67 337.01 269.1H296Z" fill="#16594D"/>
<path opacity="0.5" d="M296 269.1C296 269.1 245.16 287.54 243.67 311.93C240.91 356.86 259.28 392.43 259.28 392.43L276.12 390.63C276.12 390.63 273.12 376.17 270.89 335.47C268.08 284.32 354.89 336.67 337.01 269.1H296Z" fill="white"/>
<path d="M254.62 386.23C254.54 386.23 257.3 393.71 257.3 393.71L278.3 391.65L277.25 384.85L254.62 386.23Z" fill="#16594D"/>
<path d="M228.73 408.85H217.78L214.58 383.49H225.53L228.73 408.85Z" fill="#EEB1A9"/>
<path d="M217.7 405.25H229.7C229.917 405.247 230.127 405.32 230.297 405.454C230.466 405.589 230.584 405.778 230.63 405.99L232.81 415.72C232.874 415.958 232.881 416.208 232.832 416.45C232.782 416.691 232.677 416.918 232.525 417.112C232.372 417.306 232.177 417.462 231.954 417.568C231.731 417.673 231.487 417.725 231.24 417.72C226.93 417.65 220.69 417.41 215.24 417.42C208.9 417.42 207.69 417.77 200.24 417.78C195.74 417.78 194.49 413.25 196.37 412.78C204.93 410.9 207.67 410.69 215.06 406.12C215.84 405.586 216.756 405.285 217.7 405.25Z" fill="#263238"/>
<path opacity="0.2" d="M214.59 383.5L216.33 397.31L227.19 396.57L225.54 383.5H214.59Z" fill="black"/>
<path d="M278.45 269.1C278.45 269.1 195.15 276.49 196.05 318.33C196.98 361.85 213.24 391.2 213.24 391.2H229.5C229.5 391.2 226.42 368.62 226.97 325.78C227.13 312.95 253.07 308.71 278.39 307.21C300.27 305.91 320.75 293.44 329.25 273.21L331 269.1H278.45Z" fill="#16594D"/>
<path opacity="0.5" d="M278.45 269.1C278.45 269.1 195.15 276.49 196.05 318.33C196.98 361.85 213.24 391.2 213.24 391.2H229.5C229.5 391.2 226.42 368.62 226.97 325.78C227.13 312.95 253.07 308.71 278.39 307.21C300.27 305.91 320.75 293.44 329.25 273.21L331 269.1H278.45Z" fill="white"/>
<path d="M209.43 386.83C209.36 386.83 212.22 394.35 212.22 394.35L231.86 392.94L230.71 386.14L209.43 386.83Z" fill="#16594D"/>
<path d="M300.32 222.08L289.75 262.81C287.047 273.245 285.683 283.981 285.69 294.76V313.69C285.69 318.47 289.21 322.35 293.56 322.35H347.74C352.09 322.35 355.61 318.47 355.61 313.69V294.76C355.606 283.981 356.974 273.244 359.68 262.81L369.01 226.81C370.45 221.28 366.67 215.81 361.44 215.81H307.88C306.102 215.866 304.394 216.513 303.025 217.648C301.656 218.784 300.704 220.343 300.32 222.08Z" fill="#263238"/>
<path d="M232.93 302.63L234.7 312.73C235.64 318.04 240.31 322.35 245.14 322.35H305.37C310.2 322.35 313.37 318.04 312.43 312.73L310.66 302.63C309.59 296.58 304.28 291.68 298.78 291.68H241C235.46 291.68 231.87 296.58 232.93 302.63Z" fill="#263238"/>
<path d="M311.17 332.49H279.62L276.54 322.35H314.25L311.17 332.49Z" fill="#16594D"/>
<path d="M301.03 332.49H289.76V407.9H301.03V332.49Z" fill="#16594D"/>
<path opacity="0.7" d="M301.03 407.9H289.76V334.3L301.03 335.45V407.9Z" fill="white"/>
<path opacity="0.7" d="M298.28 407.9H295.59V334.89L298.28 335.17V407.9Z" fill="white"/>
<path d="M321.31 419.56H269.47C269.168 419.557 268.874 419.459 268.631 419.28C268.387 419.101 268.206 418.85 268.113 418.563C268.02 418.275 268.02 417.966 268.113 417.678C268.206 417.39 268.387 417.139 268.63 416.96L276.85 410.96C280.802 408.066 285.572 406.504 290.47 406.5H300.32C305.215 406.505 309.981 408.067 313.93 410.96L322.16 416.96C322.404 417.14 322.586 417.392 322.678 417.68C322.771 417.969 322.77 418.279 322.676 418.567C322.581 418.856 322.399 419.107 322.154 419.285C321.908 419.463 321.613 419.559 321.31 419.56Z" fill="#16594D"/>
</svg>